<svg width="216" height="42" viewBox="0 0 216 42" fill="none" xmlns="http://www.w3.org/2000/svg">
<g clip-path="url(#clip0_18_13)">
<path fill-rule="evenodd" clip-rule="evenodd" d="M37.3167 1.67109L30.2518 13.9072L34.3472 21L30.2518 28.0928L35.8319 37.7604L37.3167 40.3351L36.3516 42.0062H12.1193L6.06272 31.5093L0 21L6.05654 10.5031L12.1193 0H36.3578L37.3229 1.67109H37.3167ZM41.1708 8.34306L42.4143 10.5031L48.4709 21L42.4143 31.4969L41.1708 33.6569L37.9601 28.0928L42.0555 21L37.9601 13.9072L41.1708 8.34306ZM31.2168 5.5641H15.3238L7.38044 19.3289H15.0826L19.178 12.2361H27.3627L31.2168 5.5641ZM7.38662 22.6649L15.33 36.4297H31.2168L27.3627 29.7577H19.178L15.0826 22.6649H7.38044H7.38662Z" fill="#F1C00D"/>
<path fill-rule="evenodd" clip-rule="evenodd" d="M15.33 36.4359L7.38662 22.6711H15.0888L19.1842 29.7639H27.3689L31.223 36.4359H15.3362H15.33ZM36.3578 42L24.2385 21H0L6.05654 31.4969L12.1131 41.9938H36.3516L36.3578 42Z" fill="#F2910C"/>
<path fill-rule="evenodd" clip-rule="evenodd" d="M0 21H24.2385L33.147 5.5641L36.3578 0H24.2385H12.1193L6.06272 10.4969L0 21ZM15.0888 19.3289H7.38662L15.33 5.5641H31.223L27.3689 12.2361H19.1842L15.0888 19.3289Z" fill="#EBA812"/>
<path fill-rule="evenodd" clip-rule="evenodd" d="M164.782 18.0849L156.146 6.90717H153.517V23.0734H156.332V11.5738L165.222 23.0734H167.597V6.90717H164.782V18.0849ZM210.878 9.54377H216V6.91335H202.891V9.54377H208.013V23.0734H210.878V9.54377ZM201.115 23.0734L195.251 14.8046L200.88 6.90717H197.626L193.586 12.7065L189.571 6.90717H186.225L191.879 14.8541L185.996 23.0734H189.25L193.518 16.9523L197.762 23.0734H201.109H201.115ZM183.707 13.6287H171.748V23.0734H183.818V20.5111H174.563V16.191H183.701V13.6287H183.707Z" fill="#EBA812"/>
<path fill-rule="evenodd" clip-rule="evenodd" d="M68.781 20.4863L66.956 18.6419C66.2631 19.2856 65.564 19.7993 64.8526 20.1768C64.1473 20.5544 63.2998 20.7401 62.3161 20.7401C61.549 20.7401 60.8376 20.5915 60.1818 20.2882C59.526 19.9912 58.9631 19.5765 58.4867 19.0504C58.0104 18.5243 57.6392 17.9178 57.3794 17.2122C57.1195 16.5128 56.9896 15.7639 56.9896 14.9593C56.9896 14.1547 57.1195 13.412 57.3794 12.7188C57.6392 12.0256 58.0104 11.4191 58.4867 10.9054C58.9631 10.3917 59.526 9.9832 60.1818 9.67993C60.8376 9.37666 61.549 9.22812 62.3161 9.22812C63.2379 9.22812 64.0607 9.4138 64.7845 9.78515C65.5084 10.1565 66.195 10.6393 66.8384 11.2396L68.6634 9.14147C68.2799 8.77012 67.8716 8.4359 67.4385 8.12644C67.0055 7.81698 66.5353 7.55084 66.028 7.32803C65.5207 7.10522 64.9639 6.93192 64.3577 6.80814C63.7514 6.68435 63.0771 6.62246 62.3409 6.62246C61.1098 6.62246 59.9838 6.83908 58.9693 7.27852C57.9547 7.71795 57.0762 8.3183 56.34 9.07958C55.6038 9.84085 55.0285 10.7321 54.6202 11.7471C54.2119 12.7622 54.0077 13.8453 54.0077 15.0027C54.0077 16.16 54.2181 17.2679 54.6326 18.2829C55.0471 19.298 55.6224 20.183 56.3524 20.9257C57.0824 21.6746 57.9485 22.2626 58.9507 22.6897C59.9529 23.1229 61.0417 23.3333 62.2295 23.3333C62.9843 23.3333 63.671 23.2653 64.2958 23.1353C64.9206 23.0053 65.4898 22.8134 66.0156 22.5597C66.5415 22.3059 67.0302 22.0027 67.4818 21.6561C67.9334 21.3095 68.3727 20.9134 68.7872 20.4677L68.781 20.4863ZM171.754 6.90716V9.4695H183.713V6.90716H171.754ZM150.077 14.9717C150.077 13.8329 149.873 12.756 149.452 11.7409C149.038 10.7259 148.462 9.84085 147.72 9.08577C146.984 8.33068 146.099 7.73652 145.066 7.29708C144.033 6.85765 142.895 6.64103 141.651 6.64103C140.408 6.64103 139.263 6.86384 138.236 7.30946C137.203 7.75509 136.312 8.36163 135.558 9.1229C134.803 9.88417 134.221 10.7754 133.801 11.7905C133.386 12.8055 133.176 13.8824 133.176 15.0212C133.176 16.16 133.386 17.237 133.801 18.252C134.215 19.267 134.79 20.1521 135.533 20.9072C136.269 21.6622 137.154 22.2564 138.187 22.6958C139.22 23.1353 140.358 23.3519 141.602 23.3519C142.845 23.3519 143.99 23.1291 145.017 22.6835C146.05 22.2378 146.941 21.6313 147.695 20.87C148.45 20.1088 149.032 19.2175 149.452 18.2025C149.873 17.1874 150.077 16.1105 150.077 14.9717ZM147.101 15.015C147.101 15.8011 146.965 16.5438 146.699 17.2431C146.427 17.9425 146.056 18.5491 145.58 19.069C145.103 19.5827 144.528 19.9912 143.86 20.2944C143.192 20.5977 142.455 20.7462 141.657 20.7462C140.859 20.7462 140.117 20.5915 139.443 20.2821C138.768 19.9726 138.187 19.5579 137.698 19.038C137.209 18.5181 136.838 17.9054 136.566 17.1998C136.294 16.5004 136.164 15.7577 136.164 14.9717C136.164 14.1857 136.3 13.443 136.566 12.7436C136.838 12.0442 137.209 11.4377 137.686 10.9178C138.162 10.4041 138.737 9.99558 139.406 9.69231C140.074 9.38904 140.81 9.2405 141.608 9.2405C142.406 9.2405 143.148 9.39523 143.823 9.70469C144.497 10.0141 145.079 10.4288 145.567 10.9487C146.05 11.4748 146.427 12.0813 146.699 12.7869C146.972 13.4863 147.101 14.229 147.101 15.015ZM126.649 9.54377H131.771V6.91335H118.662V9.54377H123.785V23.0734H126.649V9.54377ZM116.905 12.3351C116.905 11.5057 116.763 10.7569 116.479 10.0946C116.194 9.43236 115.786 8.86295 115.254 8.38639C114.722 7.90982 114.078 7.54465 113.317 7.29089C112.556 7.03714 111.703 6.90716 110.768 6.90716H104.396V23.0734H107.211V17.8744H110.428C111.325 17.8744 112.16 17.7569 112.952 17.5155C113.738 17.2741 114.418 16.9275 115.012 16.4633C115.6 15.9991 116.058 15.4235 116.404 14.7303C116.745 14.0371 116.912 13.2387 116.912 12.3289L116.905 12.3351ZM114.023 12.3908C114.023 13.2697 113.713 13.9814 113.082 14.5137C112.457 15.046 111.604 15.3121 110.527 15.3121H107.217V9.4695H110.527C111.591 9.4695 112.445 9.71088 113.076 10.1998C113.713 10.6826 114.029 11.4191 114.029 12.3908H114.023ZM95.4879 16.6304L101.903 6.90716H98.6492L94.0774 14.0681L89.5551 6.90716H86.2082L92.6236 16.6985V23.0734H95.4879V16.6304ZM85.472 23.0734L81.1106 16.9523C81.6797 16.7975 82.1994 16.5809 82.6696 16.2962C83.1397 16.0115 83.5419 15.6649 83.8821 15.2564C84.2224 14.8479 84.4884 14.3775 84.6802 13.8453C84.872 13.313 84.9709 12.7126 84.9709 12.0318C84.9709 11.2458 84.8348 10.534 84.5564 9.89655C84.278 9.25906 83.8821 8.7206 83.3686 8.28117C82.8552 7.84173 82.2241 7.50133 81.4756 7.26614C80.727 7.02476 79.8919 6.90716 78.9701 6.90716H71.769V23.0734H74.5839V17.4412H78.1535L82.1375 23.0734H85.4844H85.472ZM82.0757 12.1866C82.0757 13.0221 81.7787 13.6905 81.1725 14.1795C80.5724 14.6746 79.7619 14.9222 78.7412 14.9222H74.5777V9.4695H78.7226C79.7867 9.4695 80.6157 9.6985 81.1972 10.1565C81.7849 10.6083 82.0757 11.2891 82.0757 12.1866Z" fill="white"/>
<path fill-rule="evenodd" clip-rule="evenodd" d="M70.7173 28.8974C70.7173 28.6127 70.8411 28.3714 71.0823 28.1733C71.3298 27.9752 71.6701 27.8762 72.1093 27.8762C72.499 27.8762 72.8888 27.9505 73.2723 28.1052C73.6559 28.2538 74.0395 28.4766 74.4354 28.7613L75.2396 27.6225C74.8004 27.2697 74.3302 27.0035 73.8291 26.8241C73.328 26.6384 72.7651 26.5517 72.134 26.5517C71.7134 26.5517 71.3174 26.6136 70.9648 26.7312C70.606 26.8488 70.3029 27.0159 70.0492 27.2387C69.7956 27.4615 69.5976 27.7215 69.4491 28.0248C69.3068 28.328 69.2326 28.6684 69.2326 29.046C69.2326 29.4483 69.2945 29.7825 69.4244 30.061C69.5481 30.3395 69.7337 30.5747 69.975 30.7728C70.2162 30.9708 70.5132 31.1317 70.872 31.2617C71.2308 31.3917 71.6329 31.5093 72.0907 31.6145C72.4929 31.7135 72.8145 31.8064 73.062 31.893C73.3095 31.9859 73.5074 32.0787 73.6497 32.1777C73.792 32.2767 73.891 32.3943 73.9405 32.5119C73.9962 32.6357 74.0209 32.7719 74.0209 32.9266C74.0209 33.2608 73.8848 33.527 73.6126 33.7188C73.3404 33.9169 72.9692 34.0097 72.5052 34.0097C71.967 34.0097 71.4845 33.9107 71.0638 33.725C70.6431 33.5332 70.2224 33.2608 69.8079 32.9019L68.9047 33.9788C69.4182 34.443 69.975 34.7896 70.5812 35.0124C71.1875 35.2352 71.8123 35.3466 72.4743 35.3466C72.9197 35.3466 73.3342 35.2909 73.7054 35.1733C74.0766 35.0619 74.3983 34.8948 74.6643 34.672C74.9303 34.4492 75.1407 34.183 75.2891 33.8674C75.4376 33.5517 75.5118 33.1866 75.5118 32.7781C75.5118 32.4191 75.45 32.1096 75.3324 31.8435C75.2149 31.5774 75.0417 31.3484 74.8128 31.1441C74.5839 30.9461 74.2931 30.7728 73.9467 30.6366C73.6002 30.5004 73.1981 30.3705 72.7527 30.2591C72.3444 30.16 72.0103 30.0672 71.7381 29.9805C71.4721 29.8939 71.2679 29.7949 71.1133 29.6897C70.9648 29.5844 70.8596 29.4668 70.8039 29.3492C70.7483 29.2255 70.7173 29.0831 70.7173 28.9098V28.8974ZM93.5144 26.6631H87.1857V35.2228H93.5763V33.8674H88.6766V31.5836H92.9638V30.2281H88.6766V28.0248H93.5144V26.6693V26.6631ZM112.717 33.8488L111.752 32.8709C111.387 33.2113 111.016 33.4836 110.639 33.6817C110.261 33.8798 109.816 33.9788 109.296 33.9788C108.888 33.9788 108.51 33.8983 108.164 33.7436C107.817 33.5827 107.521 33.366 107.267 33.0875C107.013 32.809 106.821 32.4872 106.679 32.1158C106.543 31.7445 106.469 31.3484 106.469 30.9213C106.469 30.4943 106.537 30.1043 106.679 29.733C106.815 29.3678 107.013 29.046 107.267 28.7737C107.521 28.5013 107.817 28.2847 108.164 28.1238C108.51 27.9629 108.888 27.8886 109.296 27.8886C109.785 27.8886 110.224 27.9876 110.601 28.1795C110.985 28.3775 111.344 28.6313 111.69 28.947L112.655 27.8329C112.451 27.6348 112.235 27.4554 112.006 27.2944C111.777 27.1335 111.529 26.9912 111.263 26.8736C110.997 26.756 110.7 26.6631 110.379 26.6012C110.057 26.5332 109.698 26.5022 109.308 26.5022C108.659 26.5022 108.065 26.6198 107.527 26.8488C106.989 27.084 106.525 27.3996 106.135 27.8019C105.745 28.2042 105.442 28.6746 105.225 29.2131C105.009 29.7516 104.904 30.3271 104.904 30.9337C104.904 31.5402 105.015 32.1344 105.232 32.6667C105.454 33.2051 105.757 33.6693 106.141 34.0654C106.531 34.4615 106.989 34.771 107.514 35C108.046 35.229 108.622 35.3404 109.253 35.3404C109.649 35.3404 110.014 35.3033 110.348 35.2352C110.676 35.1671 110.979 35.0619 111.257 34.9319C111.536 34.7958 111.795 34.641 112.03 34.4554C112.272 34.2697 112.501 34.0654 112.723 33.8241L112.717 33.8488ZM131.382 26.6631H129.891V31.5897C129.891 32.382 129.699 32.9761 129.315 33.3722C128.932 33.7745 128.406 33.9726 127.732 33.9726C127.057 33.9726 126.519 33.7622 126.136 33.3475C125.752 32.9328 125.554 32.3263 125.554 31.5279V26.6631H124.063V31.5897C124.063 32.2087 124.15 32.7533 124.317 33.2237C124.49 33.6941 124.731 34.084 125.053 34.4058C125.368 34.7215 125.752 34.9629 126.204 35.1238C126.649 35.2847 127.15 35.3652 127.707 35.3652C128.264 35.3652 128.777 35.2847 129.229 35.1238C129.68 34.9629 130.064 34.7277 130.386 34.3997C130.701 34.0778 130.949 33.6755 131.122 33.1928C131.295 32.71 131.382 32.153 131.382 31.5155V26.6631ZM150.603 35.2166L148.295 31.9797C148.599 31.8992 148.871 31.7816 149.118 31.6331C149.366 31.4845 149.582 31.2989 149.762 31.0822C149.941 30.8656 150.083 30.618 150.182 30.3333C150.288 30.0548 150.337 29.733 150.337 29.374C150.337 28.9593 150.263 28.5818 150.114 28.2414C149.966 27.901 149.755 27.6163 149.483 27.3873C149.211 27.1521 148.877 26.9788 148.481 26.8488C148.085 26.7188 147.646 26.6569 147.157 26.6569H143.346V35.2166H144.837V32.2334H146.724L148.834 35.2166H150.603ZM148.809 29.4545C148.809 29.8939 148.648 30.2467 148.333 30.5128C148.017 30.7728 147.584 30.9027 147.046 30.9027H144.837V28.0186H147.033C147.596 28.0186 148.036 28.1362 148.345 28.3837C148.654 28.6251 148.809 28.9841 148.809 29.4607V29.4545ZM162.172 26.6631V35.2228H163.663V26.6631H162.172ZM179.481 28.0557H182.191V26.6631H175.25V28.0557H177.96V35.2166H179.475V28.0557H179.481ZM197.719 31.8064L201.115 26.6569H199.389L196.97 30.4447L194.576 26.6569H192.807L196.203 31.8435V35.2166H197.719V31.8064Z" fill="white"/>
</g>
<defs>
<clipPath id="clip0_18_13">
<rect width="216" height="42" fill="white"/>
</clipPath>
</defs>
</svg>
